{"asset":{"generator":"3D Builder","version":"2.0"},"scene":0,"scenes":[{"nodes":[0]}],"nodes":[{"mesh":0,"matrix":[1,0,0,0,0,-1.1920928955078125E-7,-0.99999988079071045,0,0,0.99999988079071045,-1.1920928955078125E-7,0,0,0,0,1]}],"meshes":[{"primitives":[{"attributes":{"POSITION":0},"mode":4,"indices":1,"material":0}]}],"materials":[{"name":"Regular","pbrMetallicRoughness":{"baseColorFactor":[1,1,1,1],"metallicFactor":0,"roughnessFactor":1},"alphaMode":"OPAQUE"}],"accessors":[{"bufferView":0,"byteOffset":0,"count":27,"componentType":5126,"type":"VEC3","min":[-0.5,-0.50000011920928955,0.014998999424278736],"max":[0.5,0.49999991059303284,0.024999000132083893]},{"bufferView":1,"byteOffset":0,"count":168,"componentType":5125,"type":"SCALAR"}],"bufferViews":[{"buffer":0,"byteOffset":0,"byteLength":324,"byteStride":12,"target":34962},{"buffer":0,"byteOffset":324,"byteLength":672,"target":34963}],"buffers":[{"byteLength":996,"uri":"Note.bin"}]}